<svg xmlns="http://www.w3.org/2000/svg" width="158.08" height="35" viewBox="0 0 158.08 35"><rect class="svg__rect" x="0" y="0" width="91.76" height="35" fill="#5D9741"/><rect class="svg__rect" x="89.76" y="0" width="68.32000000000001" height="35" fill="#C1D72F"/><path class="svg__text" d="M19.57 22L14.22 22L14.22 13.47L15.70 13.47L15.70 20.82L19.57 20.82L19.57 22ZM25.26 22L23.79 22L23.79 13.47L25.26 13.47L25.26 22ZM29.80 18.19L29.80 18.19L29.80 17.39Q29.80 16.19 30.23 15.27Q30.66 14.35 31.46 13.85Q32.26 13.35 33.31 13.35L33.31 13.35Q34.72 13.35 35.58 14.12Q36.44 14.89 36.58 16.29L36.58 16.29L35.11 16.29Q35.00 15.37 34.57 14.96Q34.14 14.55 33.31 14.55L33.31 14.55Q32.34 14.55 31.82 15.26Q31.30 15.96 31.29 17.33L31.29 17.33L31.29 18.09Q31.29 19.47 31.79 20.20Q32.28 20.92 33.24 20.92L33.24 20.92Q34.11 20.92 34.55 20.53Q34.99 20.14 35.11 19.22L35.11 19.22L36.58 19.22Q36.45 20.59 35.57 21.35Q34.70 22.12 33.24 22.12L33.24 22.12Q32.22 22.12 31.44 21.63Q30.66 21.15 30.24 20.26Q29.82 19.37 29.80 18.19ZM46.47 22L40.89 22L40.89 13.47L46.43 13.47L46.43 14.66L42.38 14.66L42.38 17.02L45.88 17.02L45.88 18.19L42.38 18.19L42.38 20.82L46.47 20.82L46.47 22ZM52.15 22L50.67 22L50.67 13.47L52.15 13.47L55.97 19.54L55.97 13.47L57.44 13.47L57.44 22L55.95 22L52.15 15.95L52.15 22ZM61.74 19.42L61.74 19.42L63.23 19.42Q63.23 20.15 63.71 20.55Q64.19 20.95 65.08 20.95L65.08 20.95Q65.86 20.95 66.25 20.63Q66.64 20.32 66.64 19.80L66.64 19.80Q66.64 19.24 66.24 18.94Q65.84 18.63 64.81 18.32Q63.78 18.01 63.17 17.63L63.17 17.63Q62.01 16.90 62.01 15.72L62.01 15.72Q62.01 14.69 62.85 14.02Q63.69 13.35 65.03 13.35L65.03 13.35Q65.92 13.35 66.62 13.68Q67.31 14.01 67.71 14.61Q68.11 15.22 68.11 15.96L68.11 15.96L66.64 15.96Q66.64 15.29 66.22 14.91Q65.80 14.54 65.02 14.54L65.02 14.54Q64.29 14.54 63.89 14.85Q63.49 15.16 63.49 15.71L63.49 15.71Q63.49 16.18 63.92 16.50Q64.36 16.81 65.35 17.10Q66.35 17.40 66.95 17.78Q67.56 18.16 67.84 18.65Q68.12 19.13 68.12 19.79L68.12 19.79Q68.12 20.86 67.30 21.49Q66.48 22.12 65.08 22.12L65.08 22.12Q64.16 22.12 63.38 21.77Q62.60 21.43 62.17 20.83Q61.74 20.22 61.74 19.42ZM77.98 22L72.41 22L72.41 13.47L77.94 13.47L77.94 14.66L73.89 14.66L73.89 17.02L77.39 17.02L77.39 18.19L73.89 18.19L73.89 20.82L77.98 20.82L77.98 22Z" fill="#FFFFFF"/><path class="svg__text" d="M103.52 17.80L103.52 17.80Q103.52 16.54 104.12 15.54Q104.72 14.55 105.78 13.99Q106.85 13.43 108.20 13.43L108.20 13.43Q109.37 13.43 110.31 13.83Q111.25 14.22 111.87 14.97L111.87 14.97L110.36 16.33Q109.51 15.40 108.34 15.40L108.34 15.40Q108.32 15.40 108.32 15.40L108.32 15.40Q107.24 15.40 106.58 16.06Q105.92 16.71 105.92 17.80L105.92 17.80Q105.92 18.50 106.22 19.04Q106.52 19.59 107.06 19.89Q107.60 20.20 108.30 20.20L108.30 20.20Q108.98 20.20 109.58 19.93L109.58 19.93L109.58 17.62L111.68 17.62L111.68 21.10Q110.96 21.61 110.02 21.89Q109.09 22.17 108.15 22.17L108.15 22.17Q106.83 22.17 105.77 21.61Q104.72 21.05 104.12 20.05Q103.52 19.06 103.52 17.80ZM119.05 22L116.67 22L116.67 13.60L120.51 13.60Q121.65 13.60 122.49 13.98Q123.33 14.35 123.79 15.06Q124.24 15.76 124.24 16.71L124.24 16.71Q124.24 17.66 123.79 18.35Q123.33 19.05 122.49 19.42Q121.65 19.80 120.51 19.80L120.51 19.80L119.05 19.80L119.05 22ZM119.05 15.47L119.05 17.93L120.37 17.93Q121.10 17.93 121.47 17.61Q121.84 17.29 121.84 16.71L121.84 16.71Q121.84 16.12 121.47 15.80Q121.10 15.47 120.37 15.47L120.37 15.47L119.05 15.47ZM135.38 22L129.00 22L129.00 13.60L131.38 13.60L131.38 20.11L135.38 20.11L135.38 22ZM138.92 21.34L138.92 21.34L139.78 19.55Q140.27 19.88 140.89 20.07Q141.51 20.25 142.11 20.25L142.11 20.25Q142.72 20.25 143.08 20.02Q143.44 19.79 143.44 19.37L143.44 19.37Q143.44 18.55 142.16 18.55L142.16 18.55L141.16 18.55L141.16 17.05L142.66 15.44L139.35 15.44L139.35 13.60L145.42 13.60L145.42 15.09L143.68 16.96Q144.72 17.18 145.28 17.82Q145.84 18.46 145.84 19.37L145.84 19.37Q145.84 20.11 145.44 20.75Q145.03 21.39 144.21 21.78Q143.39 22.17 142.18 22.17L142.18 22.17Q141.29 22.17 140.42 21.95Q139.55 21.74 138.92 21.34Z" fill="#FFFFFF" x="102.76"/></svg>